<svg width="24" height="24" viewBox="0 0 24 24" fill="none" xmlns="http://www.w3.org/2000/svg">
  <mask id="mask0" mask-type="alpha" maskUnits="userSpaceOnUse" x="7" y="0" width="24" height="24">
    <path d="M7.41687 0H23.9854V15.9518H7.41687V0Z" fill="white" />
  </mask>
  <g mask="url(#mask0)">
    <path fill-rule="evenodd" clip-rule="evenodd" d="M9.13044 7.73138C10.0213 7.84755 10.8181 8.32809 11.9925 8.47912C13.422 7.75145 14.9576 7.61151 16.7055 7.83963C17.9602 8.03343 23.9822 11.9342 23.9854 15.9517V8.53404C23.9854 4.53554 20.7764 0.610438 16.8143 0.0765649C12.0485 -0.565033 7.89688 2.90646 7.41687 7.43197V7.43513C7.84566 7.57137 8.45188 7.64319 9.13044 7.73138Z" fill="#257AF4" />
  </g>
  <mask id="mask1" mask-type="alpha" maskUnits="userSpaceOnUse" x="0" y="7" width="24" height="24">
    <path d="M0 7.43515H15.6912V24H0V7.43515Z" fill="white" />
  </mask>
  <g mask="url(#mask1)">
    <path fill-rule="evenodd" clip-rule="evenodd" d="M7.58698 14.817C7.69365 13.8147 7.95504 12.9117 8.38858 12.0462C7.98989 10.7334 7.56849 7.85866 7.41694 7.43515C3.55046 7.85285 0.457059 10.9484 0.0467535 14.817C0.0166539 15.1047 -0.000244141 15.3968 -0.000244141 15.6925C-0.000244141 17.0169 0.316066 18.271 0.874758 19.3847C0.878454 19.3921 0.882679 19.4 0.886375 19.4069C2.25828 22.1243 5.07973 24 8.32098 24H9.23031H9.2451H15.6912C12.4499 24 7.58698 14.817 7.58698 14.817Z" fill="#F73E59" />
  </g>
  <path fill-rule="evenodd" clip-rule="evenodd" d="M23.9852 16.6152L15.6909 16.301C12.4502 16.301 9.30876 13.4214 8.25633 12.0221C8.25316 12.0147 8.24841 12.0073 8.24471 12.0004C8.24471 11.9993 8.24419 11.9988 8.24419 11.9983C7.81064 12.8638 7.52338 13.8143 7.41724 14.8171C7.38661 15.1049 7.37024 15.3964 7.37024 15.6926C7.37024 17.017 7.68655 18.2712 8.24471 19.3848C8.24841 19.3922 8.25316 19.3996 8.25633 19.407C9.62877 22.1244 12.4502 23.9996 15.6909 23.9996H16.6008H16.6151H23.8643C23.9309 23.9996 23.9852 23.9457 23.9852 23.8792V16.6152Z" fill="#FFBB33" />
  <path fill-rule="evenodd" clip-rule="evenodd" d="M16.6813 7.44468C14.9677 7.24085 13.3387 7.5693 11.9351 8.28377C13.4506 9.69212 15.8718 12.6044 16.4537 15.9576L16.6153 16.615H23.9855V15.9227C23.9855 11.8609 20.7146 7.92469 16.6813 7.44468Z" fill="#779FF7" />
  <path fill-rule="evenodd" clip-rule="evenodd" d="M11.9353 8.28371C11.1485 7.86126 10.2962 7.57241 9.4054 7.45676C8.72683 7.36858 8.06147 7.36594 7.41724 7.43564C7.38661 7.72238 7.37024 8.01282 7.37024 8.30748C7.37024 9.63186 7.68655 10.885 8.24418 11.9981C8.24471 11.9986 8.24471 11.9992 8.24524 12.0002C8.24894 12.0076 8.25316 12.0145 8.25686 12.0219C9.62877 14.7393 12.4502 16.615 15.6909 16.615H16.6008H16.615L16.6156 15.9575C16.6156 12.8367 14.6707 9.75015 11.9353 8.28371Z" fill="#3E5CCC" />
</svg>
